# xmcd
# 
# Track frame offsets:
#     150
#     20400
#     40650
#     60900
#     81150
#     101400
#     121650
#     141900
#     162150
#     182400
#     202650
#     222900
#     243150
#     263400
#     283650
#     303900
# 
# Disc length: 4322
# 
# Revision: 2
# Processed by: cddbd v1.5.2PL0 Copyright (c) Steve Scherf et al.
# Submitted via: BonkEnc v1.0
# 
DISCID=c210e010
DTITLE=Origins - Oxygène
DYEAR=1997
DGENRE=New Age
TTITLE0=Le lever du jour
TTITLE1=L'été
TTITLE2=Le sous bois
TTITLE3=La forêt Tropicale
TTITLE4=Le vent
TTITLE5=La forêt
TTITLE6=La nature s'endort
TTITLE7=La galaxie
TTITLE8=Au bord des ruisseaux
TTITLE9=L'orage et la pluie
TTITLE10=Le rivage
TTITLE11=Le voyage en mer
TTITLE12=La tempête
TTITLE13=Dauphins et baleines
TTITLE14=Sous la mer
TTITLE15=Les chants de la glace
EXTD=La vie en seize verbes fondamentaux YEAR: 1997
EXTT0=
EXTT1=
EXTT2=
EXTT3=
EXTT4=
EXTT5=
EXTT6=
EXTT7=
EXTT8=
EXTT9=
EXTT10=
EXTT11=
EXTT12=
EXTT13=
EXTT14=
EXTT15=
PLAYORDER=
